<!--?xml version="1.0" encoding="utf-8"?-->
<!-- Generator: Adobe Illustrator 19.1.1, SVG Export Plug-In . SVG Version: 6.00 Build 0)  -->
<svg version="1.1" id="_x31_0" xmlns="http://www.w3.org/2000/svg"
	 xmlns:xlink="http://www.w3.org/1999/xlink" x="0px" y="0px"
	 viewBox="0 0 512 512" style="width: 256px; height: 256px; opacity: 1"
	 xml:space="preserve">
<style type="text/css">
	.st0{fill:#ffffff;}
</style>
<g>
	<path class="st0" d="M235.808,115.819c3.879,21.161-1.129,45.703-13.89,71.133l43.789-43.789l-16.41-16.406l-14.019-14.218
		c0.019,0.082,0.031,0.164,0.05,0.25l-0.206-0.207C235.418,113.659,235.613,114.742,235.808,115.819z" ></path>
	<path class="st0" d="M163.202,242.918c42.66-42.661,65.242-90.375,58.957-124.543c-2.894-15.758-12.125-27.836-25.871-34.02
		c-38.73-17.332-97.938,16.446-136.57,55.078c-38.637,38.637-72.41,97.84-55.031,136.524c6.137,13.797,18.262,22.976,33.969,25.922
		C72.823,308.164,120.542,285.578,163.202,242.918z M194.866,123.382c3.73,20.422-10.652,59.254-51.301,99.899
		c-40.649,40.648-79.43,54.984-99.852,51.254c-9.035-1.668-12.125-6.434-13.695-9.867c-8.348-18.754,8.149-64.41,49.336-105.598
		c41.234-41.234,86.891-57.73,105.594-49.336C188.386,111.304,193.198,114.347,194.866,123.382z" ></path>
	<path class="st0" d="M173.018,252.738c-5.546,5.547-11.191,10.801-16.886,15.707c-33.547,28.973-68.422,45.852-98.715,48.054
		c-0.594,0.039-1.187,0.082-1.774,0.114c-6.754,0.363-13.277,0.016-19.492-1.137c-0.859-0.187-1.691-0.351-2.539-0.523l-0.687-0.278
		l0.172,0.172c-0.094-0.019-0.188-0.035-0.282-0.058l118.653,118.656c34.809,34.805,95.852,30.313,151.719-25.554l175.035-175.035
		L335.562,90.195L173.018,252.738z M438.949,232.855L286.226,385.578c-35.489,35.489-70.134,45.114-94.11,39.458
		c-0.829-0.195-1.641-0.418-2.446-0.653c-2.805-0.808-5.43-1.843-7.894-3.07c-0.664-0.332-1.359-0.621-2.004-0.984
		c-1.355-0.762-2.629-1.614-3.863-2.5c-0.688-0.496-1.328-1.039-1.977-1.574c-0.969-0.793-1.953-1.574-2.828-2.446l-53.442-53.445
		L94.327,336.93c26.348-8.719,53.707-24.798,79.938-47.45c6.184-5.332,12.371-11.086,18.39-17.106l142.907-142.906L438.84,232.746
		L438.949,232.855z" ></path>
	<path class="st0" d="M463.297,150.335c1.582-1.582,2.797-3.406,3.676-5.442c0.973-2.309,1.519-4.859,1.609-7.504
		c0.039-0.84-0.168-1.742-0.214-2.609c-0.031-0.543-0.074-1.082-0.137-1.634c-0.203-1.804-0.586-3.609-1.137-5.461
		c-0.141-0.469-0.285-0.938-0.449-1.406c-0.665-1.93-1.512-3.824-2.543-5.73c-0.203-0.378-0.41-0.754-0.629-1.129
		c-1.102-1.898-2.375-3.726-3.828-5.523c-0.313-0.39-0.633-0.778-0.966-1.16c-0.758-0.879-1.374-1.817-2.218-2.66
		c-8.262-8.266-18.535-12.52-27.313-12.126c-2.644,0.094-5.195,0.641-7.504,1.614c-2.038,0.878-3.859,2.094-5.441,3.676
		L369.355,56.39l-24.309,24.309l142.649,142.645L512,199.039L463.297,150.335z" ></path>
	<path class="st0" d="M300.796,327.254L300.796,327.254l-0.113-0.114l-5.18,5.18l-3.297,3.156l-0.965-13.11
		c-0.078-0.793-0.156-1.538-0.23-2.23c-0.078-0.695-0.234-1.308-0.414-1.898c-0.202-0.566-0.461-1.129-0.766-1.644
		c-0.336-0.539-0.746-1.051-1.285-1.59c-0.977-0.972-2.027-1.718-3.156-2.179c-1.129-0.465-2.258-0.668-3.36-0.645
		c-1.129,0.054-2.258,0.359-3.386,0.875c-1.129,0.511-2.133,1.258-3.106,2.23c-0.949,0.949-1.695,1.949-2.234,3.054
		c-0.484,1.102-0.793,2.23-0.82,3.387c-0.074,1.156,0.129,2.285,0.566,3.438c0.375,0.918,1.054,1.754,1.789,2.582
		c0.118,0.16,0.18,0.328,0.305,0.488l0.019-0.023c0.043,0.043,0.051,0.094,0.094,0.137l4-4.004
		c-0.539-0.539-0.898-1.054-1.102-1.566c-0.207-0.511-0.286-1-0.258-1.488c0.051-0.461,0.18-0.898,0.387-1.309
		c0.254-0.41,0.511-0.77,0.843-1.102c0.875-0.871,1.774-1.258,2.723-1.23c0.949,0.074,1.847,0.512,2.668,1.332
		c0.511,0.512,0.871,1.027,1.102,1.618c0.207,0.566,0.359,1.281,0.41,2.156l1.336,17.703l3.59,3.59l13.32-13.313l-3.473-3.472
		L300.796,327.254z" ></path>
	<polygon class="st0" points="224.437,265.605 224.41,265.628 224.414,265.628 224.3,265.742 247.878,289.32 253.702,283.495 
		230.124,259.918 	" ></polygon>
	<polygon class="st0" points="278.847,278.879 284.698,273.027 251.242,239.57 245.515,245.292 245.503,245.304 245.503,245.308 
		245.39,245.422 	" ></polygon>
	<polygon class="st0" points="237.41,320.316 243.109,314.617 243.121,314.605 243.121,314.601 243.234,314.492 209.777,281.031 
		204.078,286.73 204.066,286.742 204.066,286.746 203.953,286.859 	" ></polygon>
	<polygon class="st0" points="182.96,307.078 182.949,307.09 182.949,307.09 182.835,307.203 206.418,330.785 212.265,324.933 
		188.686,301.355 	" ></polygon>
	<polygon class="st0" points="162.64,328.167 162.628,328.179 162.628,328.183 162.515,328.297 195.972,361.754 201.796,355.93 
		168.339,322.468 	" ></polygon>
	<polygon class="st0" points="289.316,247.883 295.14,242.058 271.562,218.48 265.874,224.167 265.847,224.191 265.851,224.191 
		265.738,224.304 	" ></polygon>
	<path class="st0" d="M247.546,374.789c-1.336-1.336-2.668-2.106-4.027-2.336c-1.184-0.226-2.297-0.152-3.375,0.125
		c-0.149,0.012-0.262,0.02-0.414,0.027c0.294-1.113,0.371-2.25,0.145-3.437c-0.23-1.153-0.926-2.36-2.129-3.566
		c-0.926-0.922-1.954-1.59-3.031-2.055c-1.102-0.434-2.203-0.613-3.359-0.59c-1.18,0.05-2.282,0.336-3.414,0.847
		c-1.129,0.516-2.18,1.258-3.152,2.234c-0.926,0.922-1.645,1.898-2.184,3c-0.512,1.13-0.793,2.234-0.871,3.336
		c-0.05,1.13,0.129,2.286,0.539,3.414c0.324,0.89,0.957,1.707,1.621,2.515c0.126,0.18,0.188,0.371,0.321,0.551l0.023-0.023
		c0.039,0.042,0.047,0.094,0.086,0.137l4.004-4c-0.82-0.875-1.179-1.798-1.129-2.774c0.027-0.95,0.438-1.821,1.18-2.566
		c0.718-0.719,1.59-1.129,2.617-1.18c0.977-0.05,1.95,0.359,2.875,1.282c0.793,0.797,1.203,1.668,1.309,2.594
		c0.102,0.973-0.359,1.949-1.336,2.926l-0.477,0.477l0,0l0,0l-0.113,0.113l3.492,3.489l0.59-0.59c0.973-0.972,2-1.488,3.078-1.488
		c1.074,0.051,2.078,0.488,3,1.41c1,1.004,1.465,2.027,1.41,3.106c0,1.078-0.462,2.054-1.305,2.898
		c-0.414,0.414-0.825,0.718-1.313,0.949c-0.461,0.258-0.946,0.387-1.461,0.438c-0.489,0.027-1.027-0.05-1.539-0.258
		c-0.512-0.203-1.027-0.512-1.566-1l-3.809,3.809l-0.082,0.078c0,0,0.004,0,0.004,0.004l-0.114,0.114
		c1.18,1.129,2.359,1.898,3.566,2.336c1.203,0.434,2.41,0.562,3.566,0.434c1.152-0.129,2.282-0.489,3.359-1.051
		c1.106-0.59,2.055-1.336,2.977-2.258c0.926-0.922,1.695-1.95,2.285-3.054c0.563-1.13,0.922-2.258,0.973-3.438
		c0.106-1.18-0.05-2.36-0.511-3.539C249.418,377.019,248.625,375.863,247.546,374.789z" ></path>
	<polygon class="st0" points="326.023,231.703 326.136,231.59 292.679,198.132 286.828,203.984 320.285,237.441 326.011,231.715 
		326.023,231.703 	" ></polygon>
	<polygon class="st0" points="334.117,156.695 328.418,162.394 328.402,162.406 328.406,162.406 328.293,162.519 361.75,195.976 
		367.437,190.288 367.461,190.265 367.461,190.265 367.574,190.152 	" ></polygon>
	<path class="st0" d="M376.808,227.047l9.238,9.238c1.051,1.05,2.157,1.797,3.336,2.258c1.153,0.438,2.336,0.641,3.489,0.566
		c1.179-0.054,2.285-0.336,3.386-0.82c1.106-0.539,2.078-1.258,2.977-2.157c0.871-0.875,1.59-1.847,2.129-2.953
		c0.515-1.129,0.797-2.23,0.847-3.41c0.051-1.129-0.152-2.309-0.59-3.465c-0.461-1.18-1.207-2.285-2.258-3.336l-9.238-9.238
		c-1.051-1.05-2.153-1.793-3.332-2.258c-1.156-0.434-2.336-0.641-3.465-0.59c-1.18,0.054-2.286,0.336-3.414,0.847
		c-1.102,0.539-2.078,1.258-2.949,2.129c-0.898,0.898-1.618,1.875-2.157,2.977c-0.488,1.106-0.77,2.207-0.82,3.387
		c-0.078,1.156,0.129,2.335,0.562,3.488C375.015,224.894,375.758,225.995,376.808,227.047z M383.277,216.323
		c1.024,0.051,1.973,0.539,2.898,1.462l9.161,9.16c0.922,0.926,1.41,1.875,1.437,2.875c0.051,1.027-0.335,1.922-1.129,2.718
		c-0.797,0.797-1.695,1.18-2.746,1.156c-1-0.027-1.95-0.515-2.875-1.438l-9.16-9.16c-0.922-0.926-1.41-1.871-1.461-2.898
		c-0.028-1.054,0.359-1.949,1.156-2.746C381.351,216.655,382.25,216.273,383.277,216.323z" ></path>
	<polygon class="st0" points="330.754,206.445 336.605,200.593 313.187,177.179 313.136,177.128 313.136,177.128 313.023,177.015 
		307.312,182.73 307.285,182.753 307.289,182.753 307.175,182.867 	" ></polygon>
	<polygon class="st0" points="330.766,260.644 330.766,260.644 330.652,260.531 326.648,264.535 326.058,272.875 328.601,275.418 
		330.206,277.171 330.222,277.039 330.37,277.183 330.734,272.047 331.05,268.937 348.562,286.445 352.562,282.445 330.812,260.691 
			" ></polygon>
	<path class="st0" d="M101.101,180.819c-14.383,14.383-21.454,31.958-15.414,39.665c0.375,0.48,0.926,0.746,1.383,1.129
		c0.172,0.144,0.332,0.293,0.515,0.422c7.594,5.406,24.391-0.742,39.192-15.543c16.102-16.102,22.14-34.707,13.992-41.09
		C133.058,159.367,115.534,166.386,101.101,180.819z" ></path>
</g>
</svg>
